<svg xmlns="http://www.w3.org/2000/svg" width="920" height="280" viewBox="0 0 920 280" role="img" aria-label="AST F1 progression">
  <rect x="0" y="0" width="920" height="280" rx="18" fill="#f8fafc"/>
  <line x1="34" y1="246" x2="886" y2="246" stroke="#cbd5e1" stroke-width="3"/>
  <line x1="34" y1="34" x2="34" y2="246" stroke="#cbd5e1" stroke-width="3"/>
  <polyline fill="none" stroke="#7c3aed" stroke-width="5" points="34.0,246.0 43.2,118.0 52.3,90.0 61.5,83.7 70.6,73.1 79.8,61.9 89.0,58.4 98.1,53.7 107.3,52.8 116.5,46.8 125.6,44.4 134.8,36.5 143.9,41.4 153.1,41.4 162.3,37.4 171.4,39.4 180.6,38.9 189.7,37.4 198.9,37.9 208.1,36.5 217.2,237.9 226.4,121.8 235.5,95.8 244.7,83.6 253.9,64.6 263.0,70.1 272.2,59.8 281.4,53.4 290.5,41.4 299.7,49.4 308.8,43.9 318.0,41.0 327.2,44.4 336.3,42.3 345.5,35.4 354.6,39.0 363.8,229.3 373.0,122.5 382.1,99.7 391.3,79.2 400.5,73.3 409.6,70.0 418.8,58.7 427.9,53.3 437.1,51.4 446.3,41.9 455.4,42.9 464.6,44.9 473.7,43.4 482.9,37.4 492.1,37.9 501.2,34.5 510.4,35.9 519.5,37.4 528.7,36.5 537.9,35.5 547.0,235.8 556.2,108.9 565.4,97.9 574.5,88.1 583.7,79.1 592.8,61.1 602.0,54.3 611.2,63.8 620.3,43.4 629.5,48.4 638.6,44.4 647.8,43.8 657.0,38.5 666.1,41.8 675.3,40.9 684.5,40.9 693.6,37.0 702.8,34.0 711.9,36.5 721.1,38.9 730.3,238.4 739.4,115.1 748.6,96.3 757.7,76.7 766.9,71.3 776.1,59.9 785.2,59.3 794.4,52.2 803.5,43.3 812.7,48.9 821.9,45.3 831.0,41.5 840.2,38.4 849.4,40.9 858.5,38.0 867.7,40.9 876.8,38.9 886.0,38.3"/>
  <polyline fill="none" stroke="#ea580c" stroke-width="5" points="34.0,129.8 43.2,124.7 52.3,100.1 61.5,107.0 70.6,96.8 79.8,87.1 89.0,75.6 98.1,73.6 107.3,77.3 116.5,82.5 125.6,71.7 134.8,73.0 143.9,59.1 153.1,64.8 162.3,62.6 171.4,64.6 180.6,58.6 189.7,57.0 198.9,56.9 208.1,56.9 217.2,137.3 226.4,114.1 235.5,109.2 244.7,97.8 253.9,89.6 263.0,88.4 272.2,86.7 281.4,76.5 290.5,72.9 299.7,80.3 308.8,68.9 318.0,72.7 327.2,70.8 336.3,70.9 345.5,68.9 354.6,73.0 363.8,156.0 373.0,129.2 382.1,88.7 391.3,86.6 400.5,88.8 409.6,74.1 418.8,65.0 427.9,68.7 437.1,70.9 446.3,76.9 455.4,61.0 464.6,67.0 473.7,64.9 482.9,61.0 492.1,61.0 501.2,62.9 510.4,59.0 519.5,61.0 528.7,61.0 537.9,61.0 547.0,127.6 556.2,115.0 565.4,102.3 574.5,96.0 583.7,88.0 592.8,69.3 602.0,66.8 611.2,53.1 620.3,65.4 629.5,63.1 638.6,59.0 647.8,51.0 657.0,56.8 666.1,52.9 675.3,55.0 684.5,51.1 693.6,50.9 702.8,50.9 711.9,50.9 721.1,53.0 730.3,145.9 739.4,124.8 748.6,115.9 757.7,97.8 766.9,87.9 776.1,91.5 785.2,84.7 794.4,89.8 803.5,88.9 812.7,86.7 821.9,78.4 831.0,80.4 840.2,72.9 849.4,82.5 858.5,82.7 867.7,84.7 876.8,74.6 886.0,78.7"/>
  <text x="34" y="28" fill="#0f172a" font-size="24" font-family="Arial, sans-serif">AST F1 progression</text>
  <text x="680" y="28" fill="#7c3aed" font-size="18" font-family="Arial, sans-serif">train F1</text>
  <text x="800" y="28" fill="#ea580c" font-size="18" font-family="Arial, sans-serif">val F1</text>
</svg>
