<svg xmlns="http://www.w3.org/2000/svg" width="920" height="280" viewBox="0 0 920 280" role="img" aria-label="EfficientNet F1 progression">
  <rect x="0" y="0" width="920" height="280" rx="18" fill="#f8fafc"/>
  <line x1="34" y1="246" x2="886" y2="246" stroke="#cbd5e1" stroke-width="3"/>
  <line x1="34" y1="34" x2="34" y2="246" stroke="#cbd5e1" stroke-width="3"/>
  <polyline fill="none" stroke="#2563eb" stroke-width="5" points="34.0,239.5 39.7,153.6 45.4,139.7 51.2,108.9 56.9,102.0 62.6,95.6 68.3,86.6 74.0,79.5 79.7,72.7 85.5,67.7 91.2,69.9 96.9,64.0 102.6,57.8 108.3,54.6 114.1,52.3 119.8,46.3 125.5,46.4 131.2,46.2 136.9,46.8 142.6,42.7 148.4,38.1 154.1,43.1 159.8,39.0 165.5,39.0 171.2,40.8 177.0,35.3 182.7,43.6 188.4,38.6 194.1,41.8 199.8,40.3 205.5,228.1 211.3,152.4 217.0,127.0 222.7,101.1 228.4,104.0 234.1,97.0 239.9,92.1 245.6,83.9 251.3,76.3 257.0,67.8 262.7,70.5 268.4,62.0 274.2,57.2 279.9,49.5 285.6,55.6 291.3,54.0 297.0,50.8 302.8,39.9 308.5,46.3 314.2,41.7 319.9,39.9 325.6,43.6 331.3,40.4 337.1,43.6 342.8,39.5 348.5,38.5 354.2,39.4 359.9,37.2 365.7,36.7 371.4,38.6 377.1,237.2 382.8,152.1 388.5,123.7 394.2,115.5 400.0,108.5 405.7,99.1 411.4,87.0 417.1,88.5 422.8,74.9 428.6,71.4 434.3,68.2 440.0,63.2 445.7,55.0 451.4,54.6 457.1,49.4 462.9,57.3 468.6,54.1 474.3,47.3 480.0,43.6 485.7,46.3 491.4,40.4 497.2,39.0 502.9,38.6 508.6,39.0 514.3,40.4 520.0,40.4 525.8,37.2 531.5,39.9 537.2,36.7 542.9,34.0 548.6,232.0 554.3,157.0 560.1,129.4 565.8,131.0 571.5,112.4 577.2,88.8 582.9,90.6 588.7,85.7 594.4,84.7 600.1,67.2 605.8,76.1 611.5,66.2 617.2,55.9 623.0,60.6 628.7,50.0 634.4,54.6 640.1,48.6 645.8,45.4 651.6,43.6 657.3,47.2 663.0,40.4 668.7,38.6 674.4,40.8 680.1,39.0 685.9,38.1 691.6,42.2 697.3,37.2 703.0,36.7 708.7,38.5 714.5,34.9 720.2,246.0 725.9,154.8 731.6,126.0 737.3,119.6 743.0,101.1 748.8,93.0 754.5,88.1 760.2,85.4 765.9,73.0 771.6,69.0 777.4,66.6 783.1,57.8 788.8,59.8 794.5,65.8 800.2,56.5 805.9,53.6 811.7,48.6 817.4,46.7 823.1,45.4 828.8,44.6 834.5,44.0 840.3,42.6 846.0,35.8 851.7,40.3 857.4,38.6 863.1,37.6 868.8,37.1 874.6,40.3 880.3,36.3 886.0,36.7"/>
  <polyline fill="none" stroke="#0f766e" stroke-width="5" points="34.0,159.3 39.7,149.7 45.4,107.0 51.2,107.5 56.9,108.3 62.6,112.1 68.3,115.7 74.0,88.0 79.7,85.6 85.5,82.3 91.2,93.0 96.9,76.7 102.6,75.5 108.3,85.7 114.1,69.5 119.8,65.0 125.5,61.7 131.2,54.2 136.9,63.5 142.6,58.7 148.4,53.0 154.1,52.5 159.8,47.2 165.5,48.7 171.2,43.5 177.0,43.6 182.7,45.4 188.4,45.4 194.1,45.4 199.8,47.3 205.5,176.8 211.3,143.1 217.0,103.8 222.7,118.1 228.4,122.3 234.1,105.6 239.9,92.3 245.6,87.9 251.3,78.9 257.0,82.2 262.7,82.9 268.4,82.0 274.2,63.3 279.9,60.4 285.6,56.7 291.3,65.8 297.0,58.9 302.8,61.5 308.5,48.7 314.2,52.9 319.9,56.9 325.6,47.1 331.3,46.7 337.1,50.3 342.8,45.4 348.5,41.6 354.2,43.5 359.9,45.4 365.7,41.7 371.4,43.5 377.1,173.3 382.8,126.2 388.5,104.5 394.2,110.6 400.0,105.9 405.7,112.7 411.4,84.0 417.1,80.1 422.8,101.4 428.6,76.6 434.3,84.6 440.0,72.7 445.7,67.4 451.4,67.2 457.1,79.1 462.9,60.0 468.6,67.7 474.3,50.9 480.0,59.8 485.7,49.1 491.4,56.5 497.2,49.3 502.9,49.1 508.6,50.8 514.3,49.0 520.0,54.3 525.8,45.6 531.5,49.1 537.2,48.9 542.9,49.0 548.6,221.0 554.3,143.8 560.1,126.7 565.8,107.1 571.5,83.4 577.2,80.2 582.9,95.8 588.7,87.6 594.4,77.7 600.1,81.8 605.8,74.4 611.5,73.0 617.2,67.3 623.0,73.4 628.7,52.8 634.4,62.3 640.1,56.5 645.8,54.5 651.6,54.9 657.3,54.6 663.0,52.8 668.7,49.1 674.4,49.0 680.1,52.7 685.9,47.3 691.6,49.1 697.3,45.4 703.0,45.4 708.7,45.4 714.5,45.4 720.2,156.2 725.9,134.0 731.6,124.5 737.3,104.8 743.0,109.0 748.8,123.4 754.5,106.5 760.2,101.6 765.9,83.5 771.6,86.3 777.4,86.3 783.1,93.3 788.8,91.3 794.5,76.3 800.2,74.8 805.9,59.9 811.7,61.9 817.4,63.8 823.1,54.3 828.8,58.3 834.5,56.3 840.3,52.8 846.0,52.9 851.7,51.1 857.4,47.4 863.1,51.0 868.8,51.0 874.6,49.2 880.3,52.8 886.0,51.0"/>
  <text x="34" y="28" fill="#0f172a" font-size="24" font-family="Arial, sans-serif">EfficientNet F1 progression</text>
  <text x="680" y="28" fill="#2563eb" font-size="18" font-family="Arial, sans-serif">train F1</text>
  <text x="800" y="28" fill="#0f766e" font-size="18" font-family="Arial, sans-serif">val F1</text>
</svg>
